<?xml version="1.0" encoding="utf-8"?>
<!-- Generator: Adobe Illustrator 22.1.0, SVG Export Plug-In . SVG Version: 6.00 Build 0)  -->
<svg version="1.1" id="レイヤー_1" xmlns="http://www.w3.org/2000/svg" xmlns:xlink="http://www.w3.org/1999/xlink" x="0px"
	 y="0px" width="257.546px" height="37.51px" viewBox="0 0 257.546 37.51" style="enable-background:new 0 0 257.546 37.51;"
	 xml:space="preserve">
<style type="text/css">
	.st0{fill:#8A000F;}
	.st1{fill:#8A0012;}
	.st2{fill:#FFFFFF;}
</style>
<g>
	<g>
		<polygon points="72.555,5.237 75.556,5.237 75.556,5.916 73.371,5.916 73.371,6.808 75.403,6.808 75.403,7.483 73.371,7.483 
			73.371,8.572 75.629,8.572 75.629,9.251 72.555,9.251 		"/>
		<path d="M80.282,5.237v2.532c0,0.293,0,0.72-0.219,1.044c-0.25,0.372-0.643,0.503-1.122,0.503c-0.806,0-1.229-0.431-1.254-1.309
			l0.778-0.1c0.024,0.251,0.024,0.717,0.507,0.717c0.497,0,0.497-0.403,0.497-0.792V5.237H80.282z"/>
		<path d="M82.128,7.666l0.552-1.492l0.559,1.492H82.128z M84.744,9.251l-1.622-4.014h-0.865L80.68,9.251h0.868l0.333-0.906H83.5
			l0.347,0.906H84.744z"/>
		<path d="M86.447,5.916c0.486,0,0.677,0,0.858,0.155c0.142,0.11,0.188,0.265,0.188,0.41c0,0.579-0.573,0.579-0.993,0.579h-0.448
			V5.916H86.447z M85.238,9.251h0.813V7.738h0.535c0.365,0,0.795-0.007,1.087-0.138c0.257-0.121,0.66-0.424,0.66-1.13
			c0-0.679-0.379-0.989-0.636-1.109c-0.215-0.103-0.434-0.124-1.15-0.124h-1.309V9.251z"/>
		<path d="M89.532,7.666l0.549-1.492l0.559,1.492H89.532z M92.144,9.251l-1.622-4.014h-0.865l-1.573,4.014h0.865l0.333-0.906h1.615
			l0.351,0.906H92.144z"/>
		<polygon points="92.655,5.237 93.443,5.237 95.089,7.918 95.103,7.918 95.103,5.237 95.86,5.237 95.86,9.251 95.037,9.251 
			93.422,6.632 93.412,6.632 93.412,9.251 92.655,9.251 		"/>
		<polygon points="96.776,5.237 99.776,5.237 99.776,5.916 97.592,5.916 97.592,6.808 99.623,6.808 99.623,7.483 97.592,7.483 
			97.592,8.572 99.849,8.572 99.849,9.251 96.776,9.251 		"/>
		<path d="M101.215,7.87c0.038,0.207,0.146,0.768,0.879,0.768c0.573,0,0.799-0.296,0.799-0.555c0-0.337-0.281-0.41-1.028-0.589
			c-0.403-0.097-1.295-0.317-1.295-1.206c0-0.434,0.288-1.12,1.472-1.12c0.795,0,1.518,0.307,1.552,1.216l-0.82,0.031
			c-0.035-0.207-0.101-0.579-0.743-0.579c-0.24,0-0.684,0.072-0.684,0.4c0,0.255,0.257,0.369,0.906,0.517
			c0.618,0.145,1.452,0.344,1.452,1.33c0,0.489-0.305,0.896-0.66,1.054c-0.361,0.169-0.767,0.179-0.951,0.179
			c-0.438,0-1.514-0.034-1.671-1.375L101.215,7.87z"/>
		<polygon points="104.431,5.237 107.432,5.237 107.432,5.916 105.244,5.916 105.244,6.808 107.279,6.808 107.279,7.483 
			105.244,7.483 105.244,8.572 107.505,8.572 107.505,9.251 104.431,9.251 		"/>
		<polygon points="109.011,5.237 109.9,5.237 110.907,8.207 110.921,8.207 111.911,5.237 112.775,5.237 111.327,9.251 
			110.452,9.251 		"/>
		<path d="M113.843,7.666l0.545-1.492l0.563,1.492H113.843z M116.455,9.251l-1.622-4.014h-0.861l-1.58,4.014h0.872l0.33-0.906h1.618
			l0.347,0.906H116.455z"/>
		<path d="M117.556,7.87c0.045,0.207,0.149,0.768,0.885,0.768c0.57,0,0.795-0.296,0.795-0.555c0-0.337-0.281-0.41-1.028-0.589
			c-0.399-0.097-1.296-0.317-1.296-1.206c0-0.434,0.288-1.12,1.476-1.12c0.788,0,1.518,0.307,1.546,1.216l-0.82,0.031
			c-0.031-0.207-0.094-0.579-0.736-0.579c-0.247,0-0.688,0.072-0.688,0.4c0,0.255,0.257,0.369,0.903,0.517
			c0.622,0.145,1.455,0.344,1.455,1.33c0,0.489-0.309,0.896-0.656,1.054c-0.365,0.169-0.771,0.179-0.959,0.179
			c-0.438,0-1.511-0.034-1.667-1.375L117.556,7.87z"/>
		<path d="M124.152,8.023c-0.087,0.314-0.358,1.296-1.681,1.296c-1.098,0-1.841-0.789-1.841-2.039c0-1.116,0.57-2.112,1.886-2.112
			c0.226,0,0.792,0.024,1.236,0.462c0.208,0.203,0.309,0.437,0.386,0.716l-0.809,0.193c-0.097-0.438-0.431-0.675-0.851-0.675
			c-1.007,0-1.007,1.099-1.007,1.357c0,0.379,0.042,0.754,0.212,1.01c0.149,0.224,0.42,0.393,0.782,0.393
			c0.545,0,0.792-0.41,0.893-0.847L124.152,8.023z"/>
		<path d="M125.73,5.237v2.167c0,0.479,0,0.672,0.097,0.868c0.156,0.282,0.469,0.351,0.719,0.351c0.781,0,0.781-0.489,0.781-1.171
			V5.237h0.816v2.105c0,0.72-0.031,1.12-0.226,1.419c-0.312,0.475-0.892,0.555-1.348,0.555c-1.657,0-1.657-1.009-1.657-1.936V5.237
			H125.73z"/>
		<polygon points="129.051,5.237 129.867,5.237 129.867,8.572 131.899,8.572 131.899,9.251 129.051,9.251 		"/>
		<path d="M133.596,7.666l0.549-1.492l0.559,1.492H133.596z M136.208,9.251l-1.622-4.014h-0.861l-1.58,4.014h0.872l0.33-0.906h1.615
			l0.351,0.906H136.208z"/>
		<path d="M137.519,5.916h0.635c0.549,0,0.653,0,0.802,0.09c0.153,0.09,0.208,0.245,0.208,0.406c0,0.121-0.028,0.376-0.309,0.472
			c-0.139,0.052-0.486,0.052-0.736,0.052h-0.601V5.916z M136.703,9.251h0.816V7.576h0.16c0.549,0,0.597,0.079,1.091,0.803
			l0.59,0.872h0.976l-0.49-0.785c-0.41-0.644-0.57-0.789-0.906-0.978V7.473c0.16-0.017,0.312-0.062,0.455-0.12
			c0.392-0.165,0.615-0.551,0.615-0.989c0-0.393-0.194-0.851-0.663-1.023c-0.122-0.041-0.32-0.103-0.927-0.103h-1.716V9.251z"/>
		<path d="M143.758,5.916c0.587,0,0.681,0,0.802,0.031c0.208,0.062,0.306,0.248,0.306,0.427c0,0.424-0.42,0.462-0.698,0.462h-0.882
			v-0.92H143.758z M142.466,5.237v4.014h1.379c0.861,0,1.118-0.017,1.358-0.117c0.434-0.189,0.656-0.648,0.656-1.047
			c0-0.227-0.073-0.772-0.767-0.971c0.368-0.162,0.57-0.513,0.57-0.868c0-0.362-0.202-0.637-0.434-0.806
			c-0.264-0.183-0.58-0.203-1.143-0.203H142.466z M143.943,7.514c0.569,0,1.073,0,1.073,0.548c0,0.12-0.031,0.358-0.333,0.465
			c-0.121,0.045-0.469,0.045-0.643,0.045h-0.754V7.514H143.943z"/>
		<rect x="146.563" y="5.237" width="0.816" height="4.014"/>
		<path d="M148.894,7.246c0-0.593,0.195-1.385,1.122-1.385c0.993,0,1.115,0.916,1.115,1.371c0,1.161-0.688,1.388-1.115,1.388
			c-0.493,0-0.781-0.265-0.917-0.503C149.002,7.96,148.894,7.698,148.894,7.246 M148.054,7.267c0,0.927,0.448,2.05,1.969,2.05
			c1.417,0,1.948-1.02,1.948-2.071c0-1.168-0.639-2.081-1.962-2.081C148.755,5.165,148.054,5.982,148.054,7.267"/>
		<polygon points="152.692,5.237 153.508,5.237 153.508,8.572 155.54,8.572 155.54,9.251 152.692,9.251 		"/>
		<path d="M156.861,7.246c0-0.593,0.191-1.385,1.118-1.385c1,0,1.115,0.916,1.115,1.371c0,1.161-0.684,1.388-1.115,1.388
			c-0.49,0-0.781-0.265-0.913-0.503C156.972,7.96,156.861,7.698,156.861,7.246 M156.018,7.267c0,0.927,0.448,2.05,1.969,2.05
			c1.417,0,1.952-1.02,1.952-2.071c0-1.168-0.639-2.081-1.962-2.081C156.722,5.165,156.018,5.982,156.018,7.267"/>
		<path d="M162.493,7.098h1.761v1.599c-0.243,0.231-0.91,0.62-1.733,0.62c-1.455,0-2.053-1.03-2.053-2.084
			c0-0.982,0.545-2.064,2.007-2.064c0.656,0,1.504,0.19,1.723,1.178l-0.813,0.152c-0.156-0.558-0.66-0.634-0.903-0.634
			c-0.344,0-0.712,0.103-0.948,0.448c-0.177,0.255-0.219,0.579-0.219,0.889c0,0.593,0.205,1.419,1.157,1.419
			c0.476,0,0.851-0.262,0.955-0.337V7.777h-0.934V7.098z"/>
		<polygon points="166.164,7.563 164.681,5.237 165.636,5.237 166.587,6.826 167.525,5.237 168.463,5.237 166.98,7.57 166.98,9.251 
			166.164,9.251 		"/>
		<path d="M171.598,7.666l0.556-1.492l0.556,1.492H171.598z M174.213,9.251l-1.622-4.014h-0.865l-1.577,4.014h0.872l0.33-0.906
			h1.615l0.351,0.906H174.213z"/>
		<polygon points="174.722,5.237 175.514,5.237 177.16,7.918 177.174,7.918 177.174,5.237 177.927,5.237 177.927,9.251 
			177.108,9.251 175.493,6.632 175.479,6.632 175.479,9.251 174.722,9.251 		"/>
		<path d="M180.026,5.916c0.792,0,1.365,0,1.365,1.333c0,1.292-0.493,1.323-1.122,1.323h-0.608V5.916H180.026z M178.845,5.237v4.014
			h1.532c0.261,0,0.934,0,1.348-0.451c0.514-0.555,0.514-1.275,0.514-1.513c0-0.789-0.208-1.161-0.337-1.371
			c-0.441-0.679-1.108-0.679-1.563-0.679H178.845z"/>
		<polygon points="184.586,5.237 185.808,5.237 186.541,7.973 186.548,7.973 187.267,5.237 188.493,5.237 188.493,9.251 
			187.739,9.251 187.739,6.088 187.726,6.088 186.941,9.251 186.152,9.251 185.36,6.088 185.343,6.088 185.343,9.251 184.586,9.251 
					"/>
		<polygon points="189.378,5.237 192.379,5.237 192.379,5.916 190.194,5.916 190.194,6.808 192.226,6.808 192.226,7.483 
			190.194,7.483 190.194,8.572 192.452,8.572 192.452,9.251 189.378,9.251 		"/>
		<path d="M194.383,5.916c0.795,0,1.375,0,1.375,1.333c0,1.292-0.504,1.323-1.129,1.323h-0.608V5.916H194.383z M193.205,5.237v4.014
			h1.532c0.261,0,0.934,0,1.344-0.451c0.518-0.555,0.518-1.275,0.518-1.513c0-0.789-0.205-1.161-0.34-1.371
			c-0.438-0.679-1.104-0.679-1.559-0.679H193.205z"/>
		<rect x="197.297" y="5.237" width="0.816" height="4.014"/>
		<path d="M202.345,8.023c-0.084,0.314-0.354,1.296-1.678,1.296c-1.097,0-1.844-0.789-1.844-2.039c0-1.116,0.57-2.112,1.893-2.112
			c0.222,0,0.789,0.024,1.233,0.462c0.205,0.203,0.306,0.437,0.385,0.716l-0.809,0.193c-0.101-0.438-0.434-0.675-0.854-0.675
			c-1.004,0-1.004,1.099-1.004,1.357c0,0.379,0.045,0.754,0.212,1.01c0.149,0.224,0.42,0.393,0.778,0.393
			c0.545,0,0.792-0.41,0.896-0.847L202.345,8.023z"/>
		<rect x="203.062" y="5.237" width="0.816" height="4.014"/>
		<polygon points="204.753,5.237 205.548,5.237 207.194,7.918 207.205,7.918 207.205,5.237 207.962,5.237 207.962,9.251 
			207.142,9.251 205.527,6.632 205.513,6.632 205.513,9.251 204.753,9.251 		"/>
		<polygon points="208.875,5.237 211.879,5.237 211.879,5.916 209.691,5.916 209.691,6.808 211.727,6.808 211.727,7.483 
			209.691,7.483 209.691,8.572 211.952,8.572 211.952,9.251 208.875,9.251 		"/>
		<path d="M214.991,7.246c0-0.593,0.195-1.385,1.122-1.385c0.997,0,1.111,0.916,1.111,1.371c0,1.161-0.684,1.388-1.111,1.388
			c-0.493,0-0.781-0.265-0.913-0.503C215.102,7.96,214.991,7.698,214.991,7.246 M214.151,7.267c0,0.927,0.448,2.05,1.969,2.05
			c1.417,0,1.948-1.02,1.948-2.071c0-1.168-0.639-2.081-1.962-2.081C214.855,5.165,214.151,5.982,214.151,7.267"/>
		<path d="M219.602,5.916h0.639c0.549,0,0.649,0,0.799,0.09c0.153,0.09,0.215,0.245,0.215,0.406c0,0.121-0.035,0.376-0.313,0.472
			c-0.142,0.052-0.486,0.052-0.733,0.052h-0.608V5.916z M218.786,9.251h0.816V7.576h0.163c0.549,0,0.601,0.079,1.087,0.803
			l0.59,0.872h0.976l-0.49-0.785c-0.406-0.644-0.563-0.789-0.903-0.978V7.473c0.16-0.017,0.309-0.062,0.452-0.12
			c0.396-0.165,0.615-0.551,0.615-0.989c0-0.393-0.191-0.851-0.66-1.023c-0.125-0.041-0.323-0.103-0.927-0.103h-1.719V9.251z"/>
		<path d="M224.762,7.098h1.757v1.599c-0.24,0.231-0.91,0.62-1.726,0.62c-1.459,0-2.056-1.03-2.056-2.084
			c0-0.982,0.545-2.064,2.007-2.064c0.66,0,1.504,0.19,1.726,1.178l-0.813,0.152c-0.16-0.558-0.667-0.634-0.907-0.634
			c-0.344,0-0.712,0.103-0.948,0.448c-0.177,0.255-0.219,0.579-0.219,0.889c0,0.593,0.205,1.419,1.157,1.419
			c0.472,0,0.851-0.262,0.955-0.337V7.777h-0.934V7.098z"/>
		<path d="M228.414,7.666l0.549-1.492l0.559,1.492H228.414z M231.029,9.251l-1.622-4.014h-0.865l-1.58,4.014h0.872l0.333-0.906
			h1.615l0.351,0.906H231.029z"/>
		<polygon points="231.537,5.237 232.328,5.237 233.974,7.918 233.981,7.918 233.981,5.237 234.739,5.237 234.739,9.251 
			233.922,9.251 232.304,6.632 232.297,6.632 232.297,9.251 231.537,9.251 		"/>
		<rect x="235.612" y="5.237" width="0.816" height="4.014"/>
		<polygon points="236.947,8.524 239.073,5.916 237.183,5.916 237.183,5.238 240.149,5.238 240.149,5.872 237.93,8.573 
			240.229,8.573 240.229,9.251 236.947,9.251 		"/>
		<path d="M241.827,7.666l0.556-1.492l0.556,1.492H241.827z M244.443,9.251l-1.618-4.014h-0.868l-1.577,4.014h0.872l0.33-0.906
			h1.618l0.347,0.906H244.443z"/>
		<polygon points="245.327,5.915 244.129,5.915 244.129,5.236 247.341,5.236 247.341,5.915 246.143,5.915 246.143,9.25 
			245.327,9.25 		"/>
		<rect x="247.892" y="5.237" width="0.816" height="4.014"/>
		<path d="M250.225,7.246c0-0.593,0.195-1.385,1.122-1.385c0.993,0,1.111,0.916,1.111,1.371c0,1.161-0.684,1.388-1.111,1.388
			c-0.49,0-0.781-0.265-0.913-0.503C250.337,7.96,250.225,7.698,250.225,7.246 M249.385,7.267c0,0.927,0.448,2.05,1.966,2.05
			c1.42,0,1.952-1.02,1.952-2.071c0-1.168-0.639-2.081-1.959-2.081C250.087,5.165,249.385,5.982,249.385,7.267"/>
		<polygon points="254.037,5.237 254.829,5.237 256.478,7.918 256.485,7.918 256.485,5.237 257.243,5.237 257.243,9.251 
			256.42,9.251 254.808,6.632 254.794,6.632 254.794,9.251 254.037,9.251 		"/>
	</g>
	<g>
		<path d="M75.244,25.477h5.799v3.22h-5.799V25.477z M72.851,17.694v14.062h2.393v-0.85h5.803v0.721h2.506V17.694H72.851z
			 M75.244,20.065h5.799v3.187h-5.799V20.065z"/>
		<path d="M96.424,26.772c0.507-0.569,1.107-1.349,1.796-2.341v2.503h-1.946C96.321,26.878,96.371,26.825,96.424,26.772
			 M92.075,21.75h5.176c-1.05,1.461-1.913,2.529-2.57,3.204c-1.047,1.038-2.133,1.908-3.266,2.615
			c0.45,0.45,0.933,1.174,1.453,2.176c0.88-0.589,1.673-1.194,2.39-1.815v1.293h2.963v2.946h2.427v-2.946h2.983v-1.405
			c0.69,0.655,1.523,1.339,2.49,2.057c0.237-0.562,0.773-1.303,1.6-2.219c-1.583-1.038-2.86-2.096-3.826-3.19
			c-0.67-0.665-1.387-1.571-2.143-2.715h5.373v-2.341h-6.476v-2.632h-2.427v2.632h-6.146V21.75z M100.647,24.137
			c0.52,0.787,1.017,1.468,1.496,2.043c0.18,0.251,0.38,0.502,0.613,0.754h-2.11V24.137z"/>
		<path d="M116.913,21.801h1.073v7.472h-1.073V21.801z M119.419,19.397h-4.863v9.876h-1.137v2.337h15.185v-2.337h-1.317v-9.876
			h-5.439c0.217-0.645,0.44-1.389,0.67-2.225l-2.487-0.526C119.823,17.681,119.619,18.597,119.419,19.397 M120.162,21.801h1.257
			v7.472h-1.257V21.801z M123.592,21.801h1.32v7.472h-1.32V21.801z"/>
		<path d="M139.647,29.151h5.783v0.592h-5.783V29.151z M134.374,19.926c0.593,0.317,1.143,0.75,1.647,1.293h-0.857v3.287h1.83v7.456
			h2.653v-0.585h5.783v0.585h2.723v-4.464h-8.506v-0.509h7.719v-2.549h2.29v-3.22h-5.919v-0.721h-0.297
			c0.253-0.334,0.483-0.678,0.693-1.028h0.377c0.31,0.394,0.617,0.85,0.92,1.372l2.33-0.784c-0.13-0.208-0.26-0.403-0.38-0.588
			h2.336v-1.914h-4.593c0.067-0.139,0.13-0.294,0.197-0.456l-2.44-0.44c-0.363,0.969-0.736,1.779-1.123,2.433v-1.471h-2.9
			c0.11-0.188,0.213-0.38,0.313-0.588l-2.357-0.575C135.944,18.061,135.134,19.219,134.374,19.926 M137.654,22.938h9.446v0.526
			h-9.446V22.938z M137.684,19.47h0.233c0.22,0.407,0.443,0.883,0.677,1.438l2.243-0.787c-0.09-0.228-0.187-0.443-0.287-0.651h0.98
			c-0.157,0.208-0.307,0.407-0.447,0.588c0.483,0.122,0.95,0.265,1.403,0.44h-1.45v0.721h-4.883
			C136.661,20.763,137.171,20.181,137.684,19.47 M139.647,24.962h5.059v0.509h-5.059V24.962z"/>
		<path d="M158.62,17.375l2.443,0.714c-0.197,0.658-0.403,1.29-0.613,1.901h2.04v-3.025h2.66v3.025h5.323v2.354h-5.323v2.093h4.419
			v2.337h-4.419v2.569h6.049v2.337h-14.775v-2.337h6.066v-2.569h-3.493v-2.337h3.493v-2.093h-2.88
			c-0.637,1.637-1.283,2.942-1.933,3.921c-0.623-0.694-1.327-1.243-2.107-1.646C156.513,23.145,157.533,20.731,158.62,17.375"/>
		<path d="M183.957,23.785c-0.43,0.142-0.87,0.288-1.32,0.427v-1.994h0.573c-0.14,0.228-0.283,0.446-0.427,0.651
			c0.617,0.327,1.187,0.787,1.717,1.375c0.527-0.721,1.05-1.633,1.567-2.748h0.263c-0.31,1.091-0.62,1.924-0.943,2.503
			c-0.263,0.536-0.737,1.141-1.43,1.815V23.785z M176.901,23.312l2.11,0.933c0.24-0.612,0.44-1.286,0.606-2.027h0.593v2.665
			c-0.91,0.208-1.837,0.38-2.766,0.522l0.38,2.308l2.386-0.688v4.936h2.426v-5.641l1.153-0.327
			c-0.263,0.251-0.553,0.516-0.873,0.784c0.59,0.516,1.053,1.022,1.383,1.521c1.23-1.154,2.13-2.245,2.703-3.27
			c0.507-0.936,0.943-2.113,1.307-3.531h0.193c-0.513,2.486-1.113,4.225-1.796,5.217c-0.8,1.177-1.956,2.318-3.476,3.419
			c0.596,0.545,1.056,1.111,1.383,1.696c1.85-1.207,3.206-2.678,4.09-4.417c0.833-1.587,1.42-3.558,1.75-5.915h0.11
			c0,3.359-0.073,5.769-0.23,7.227c-0.067,0.764-0.257,1.144-0.573,1.144h-1.833c0.253,0.569,0.45,1.286,0.593,2.162
			c1.68,0,2.733-0.211,3.15-0.638c0.497-0.459,0.81-1.299,0.96-2.519c0.163-1.895,0.243-5.032,0.243-9.403h-5.936
			c0.29-0.724,0.573-1.484,0.856-2.294l-2.043-0.582c-0.56,1.557-1.113,2.886-1.663,3.987v-0.456h-1.45v-3.224h-2.426v3.224h-0.193
			c0.073-0.502,0.14-1.025,0.193-1.57l-2.043-0.522C177.904,20.039,177.481,21.795,176.901,23.312"/>
		<path d="M201.928,27.816c0.43,0.38,0.8,0.889,1.106,1.524h-1.106V27.816z M199.618,17.169v14.786h2.31v-0.592h12.219V29.34h-1.713
			c0.263-0.579,0.657-1.144,1.183-1.703c-1.1-0.443-1.923-0.889-2.47-1.326c-0.373-0.258-0.717-0.569-1.023-0.916h3.493v-1.944
			h-4.993c0.057-0.393,0.097-0.807,0.13-1.247h3.876v-1.911h-6.913c0.093-0.274,0.173-0.552,0.253-0.83l-0.99-0.281h8.883v-2.013
			H199.618z M207.5,26.559c0.143-0.185,0.273-0.4,0.38-0.641c0.463,0.787,1.007,1.468,1.63,2.043
			c0.497,0.459,1.193,0.919,2.093,1.379h-7.676C205.547,28.563,206.744,27.637,207.5,26.559 M201.928,19.183h1.98
			c-0.397,1.21-1.003,2.278-1.83,3.204l1.963,0.853c0.297-0.308,0.56-0.651,0.79-1.035h1.546c-0.027,0.45-0.09,0.866-0.177,1.247
			h-3.923v1.944h3.18c-0.53,0.83-1.703,1.61-3.53,2.338V19.183z"/>
		<path d="M223.937,16.646c0.47,0.668,0.916,1.468,1.333,2.404l-1,0.41h2.933c-0.363-0.76-0.773-1.441-1.223-2.027l1.993-0.916
			c0.54,0.684,1.05,1.511,1.52,2.47l-1.157,0.473h1.813l1.387-2.748l2.426,0.833l-1.09,1.914h2.473v3.991h-2.297l0.053,0.066
			c-1.163,0.88-2.13,1.551-2.886,1.997c-0.177,0.096-0.343,0.195-0.507,0.291h5.783v2.225h-6.266v2.926
			c0,0.347-0.257,0.632-0.77,0.85c-0.586,0.284-1.61,0.436-3.066,0.46c-0.083-0.939-0.323-1.739-0.727-2.404h1.517
			c0.317,0,0.473-0.116,0.473-0.344V28.03h-6.079v-2.225h6.079v-1.197h1.143c0.27-0.162,0.547-0.327,0.823-0.506h-5.276v-2.027
			h7.829l0.363-0.212l1.45,1.504v-1.749h-10.089v1.832h-2.256v-3.991h2.276c-0.29-0.717-0.607-1.355-0.957-1.914L223.937,16.646z"/>
		<path d="M247.69,20.799c0.483-0.479,0.933-0.969,1.353-1.471c0.82,0.962,1.623,1.752,2.403,2.371
			c0.027,0.023,0.043,0.04,0.053,0.053h-4.913C246.987,21.424,247.35,21.107,247.69,20.799 M245.084,19.755
			c-1.02,0.863-2.25,1.686-3.69,2.47c0.59,0.479,1.12,1.177,1.58,2.093c0.627-0.393,1.217-0.787,1.767-1.18v0.837h8.652v-0.85
			c0.747,0.469,1.623,0.949,2.626,1.438c0.23-0.545,0.737-1.263,1.527-2.159c-1.786-0.787-3.24-1.584-4.35-2.404
			c-0.857-0.588-1.793-1.395-2.803-2.417c0.133-0.175,0.253-0.354,0.363-0.542l-2.52-0.655
			C247.204,17.718,246.15,18.836,245.084,19.755 M242.121,27.26h3.643c-0.42,0.992-0.803,1.845-1.157,2.553
			c-0.747,0.02-1.533,0.043-2.357,0.066c0.36,0.84,0.623,1.637,0.79,2.404c3.64-0.198,7.003-0.592,10.089-1.181
			c0.393,0.413,0.77,0.83,1.12,1.243l1.833-1.554c-1.23-1.471-2.34-2.645-3.33-3.531h3.803v-2.222h-14.435V27.26z M247.281,29.647
			c0.373-0.76,0.726-1.557,1.056-2.387h3.143l-1.133,0.899c0.363,0.36,0.706,0.714,1.036,1.061
			C250.143,29.399,248.774,29.538,247.281,29.647"/>
	</g>
</g>
<g>
	<path class="st0" d="M23.391,19.389H0.002c0.001,0.068-0.003,0.13-0.001,0.199c0.008,0.289,0.03,0.563,0.048,0.844h23.395
		C23.408,20.089,23.406,19.737,23.391,19.389"/>
	<path class="st0" d="M23.449,16.649H0.13c-0.041,0.358-0.067,0.725-0.089,1.097h23.35C23.406,17.379,23.412,17.01,23.449,16.649"/>
	<path class="st0" d="M23.693,22.075H0.212c0.043,0.28,0.089,0.552,0.14,0.822h23.529C23.815,22.625,23.746,22.353,23.693,22.075"/>
	<path class="st0" d="M24.358,24.542H0.74c0.07,0.241,0.144,0.479,0.223,0.713H24.62C24.529,25.018,24.439,24.782,24.358,24.542"/>
	<path class="st0" d="M30.586,3.934H7.505C6.724,4.526,5.947,5.202,5.203,5.962h23.156C29.046,5.229,29.788,4.549,30.586,3.934"/>
	<path class="st0" d="M25.357,26.899H1.611c0.085,0.187,0.178,0.367,0.269,0.548h23.746C25.529,27.268,25.448,27.08,25.357,26.899"
		/>
	<path class="st0" d="M40.049,0.126V0H15.369c0,0-2.437,0.605-5.369,2.29h23.082C35.19,1.144,37.546,0.392,40.049,0.126"/>
	<path class="st0" d="M25.067,10.84H1.765c-0.21,0.439-0.4,0.898-0.577,1.369h23.314C24.673,11.744,24.859,11.288,25.067,10.84"/>
	<path class="st0" d="M26.989,7.606H3.768c-0.389,0.499-0.757,1.028-1.103,1.59h23.267C26.257,8.645,26.61,8.117,26.989,7.606"/>
	<path class="st0" d="M23.983,13.855H0.661c-0.1,0.373-0.189,0.757-0.268,1.151h23.308C23.778,14.614,23.881,14.235,23.983,13.855"
		/>
	<path class="st0" d="M16.765,37.51h23.284v-0.308H15.251C16.19,37.431,16.765,37.51,16.765,37.51"/>
	<path class="st0" d="M28.353,31.173H4.485c0.125,0.137,0.251,0.271,0.38,0.401h23.857C28.593,31.445,28.477,31.305,28.353,31.173"
		/>
	<path class="st0" d="M30.603,33.219H6.743c0.165,0.125,0.328,0.247,0.496,0.367h23.857C30.928,33.466,30.765,33.343,30.603,33.219"
		/>
	<path class="st0" d="M33.857,35.23H9.945c0.227,0.115,0.451,0.225,0.673,0.33h23.928C34.312,35.457,34.087,35.341,33.857,35.23"/>
	<path class="st0" d="M26.654,29.091H2.832c0.1,0.151,0.206,0.294,0.31,0.439h23.843C26.877,29.382,26.758,29.242,26.654,29.091"/>
	<path class="st1" d="M43.278,5.607c-1.115,0-2.194,0.152-3.229,0.409c-3.893,0.969-7.093,3.636-8.764,7.168
		c-0.106,0.221-0.209,0.443-0.3,0.672c-0.153,0.375-0.29,0.759-0.409,1.151c-0.158,0.534-0.277,1.084-0.368,1.645
		c-0.059,0.361-0.104,0.725-0.133,1.094c-0.028,0.336-0.053,0.67-0.053,1.011c0,0.213,0.022,0.421,0.031,0.633
		c0.284,5.87,4.438,10.724,9.996,12.104c1.035,0.259,2.114,0.41,3.229,0.41c7.321,0,13.254-5.888,13.254-13.147
		C56.532,11.494,50.599,5.607,43.278,5.607"/>
	<path class="st2" d="M48.724,13.962c0,0,0.201-0.398,0.523-0.492c0.322-0.095,0.523-0.133,0.817-0.12
		c0.296,0.014,0.416-0.066,0.416-0.066l-0.266-0.346c0,0-0.175-0.239-0.041-0.493c0.134-0.253,0.041-0.305,0.041-0.305l-0.308,0.292
		c0,0-0.31,0.081-0.645-0.16c-0.336-0.24-0.778-0.479-0.967-0.972c-0.187-0.492-0.535-0.771-0.535-0.771s-0.228,0.027-0.188,0.439
		c0.04,0.412,0.214,0.52,0.014,0.759c-0.201,0.239,0,0.345-0.122,0.452c-0.12,0.106-0.335,0.066-0.308,0.305
		c0.026,0.24,0.107,0.63-0.215,0.404c-0.322-0.226-0.247-0.161-0.342,0.093c-0.093,0.253-0.22,0.395-0.462,0.395
		c-0.241,0-0.362,0.147-0.322,0.425c0.04,0.28,0.068,0.161,0.201,0.28c0.135,0.121,0.189,0.308,0.028,0.347
		c-0.161,0.04-0.148,0.24-0.135,0.372c0.013,0.133,0.225,0.118,0.335-0.04c0.093-0.133-0.026-0.253,0.082-0.319
		c0.107-0.066,0.201,0.066,0.348,0.066c0.148,0,0.175-0.093-0.027-0.252c-0.202-0.16-0.387-0.095-0.416-0.28
		c-0.026-0.188,0.134-0.453,0.242-0.347c0.107,0.106,0.134,0.28,0.134,0.319c0,0.041,0.188,0.174,0.295-0.025
		c0.107-0.199,0.068-0.333,0.255-0.333c0.188,0,0.335,0.114,0.629,0.319c0.269,0.188,0.443,0.347,0.645,0.665
		C48.479,14.654,48.644,14.055,48.724,13.962"/>
	<path class="st2" d="M46.019,14.925c-0.082,0-0.139-0.047-0.146-0.121c-0.013-0.118-0.037-0.363,0.161-0.41
		c0.039-0.009,0.06-0.028,0.07-0.059c0.015-0.06-0.032-0.156-0.113-0.229c-0.039-0.034-0.067-0.046-0.093-0.056
		c-0.067-0.028-0.091-0.052-0.118-0.244c-0.023-0.155,0.001-0.276,0.073-0.356c0.063-0.073,0.158-0.11,0.283-0.11
		c0.207,0,0.332-0.107,0.429-0.372c0.018-0.047,0.03-0.088,0.039-0.123c0.022-0.073,0.037-0.132,0.099-0.132
		c0.049,0,0.109,0.041,0.259,0.146c0.072,0.051,0.113,0.061,0.134,0.061c0.012,0,0.021-0.003,0.027-0.012
		c0.044-0.048,0.023-0.218,0.006-0.343c-0.003-0.028-0.006-0.054-0.009-0.079c-0.021-0.185,0.093-0.229,0.193-0.268
		c0.045-0.018,0.093-0.036,0.127-0.066c0.036-0.032,0.033-0.059,0.024-0.117c-0.013-0.077-0.031-0.183,0.093-0.331
		c0.12-0.142,0.097-0.224,0.05-0.388c-0.026-0.088-0.057-0.197-0.072-0.345c-0.041-0.441,0.207-0.475,0.219-0.476l0.014-0.001
		l0.01,0.009c0.017,0.012,0.359,0.29,0.55,0.787c0.157,0.41,0.498,0.644,0.801,0.849c0.053,0.036,0.103,0.07,0.152,0.105
		c0.284,0.203,0.556,0.167,0.606,0.156l0.32-0.304l0.023,0.014c0.013,0.008,0.118,0.078-0.027,0.352
		c-0.124,0.23,0.036,0.453,0.039,0.456l0.288,0.373L50.5,13.313c-0.004,0.003-0.134,0.087-0.436,0.072
		c-0.297-0.012-0.503,0.031-0.807,0.12c-0.304,0.088-0.499,0.47-0.501,0.474c-0.036,0.042-0.086,0.18-0.133,0.3
		c-0.1,0.271-0.134,0.338-0.184,0.338c-0.015,0-0.03-0.009-0.04-0.024c-0.205-0.322-0.381-0.478-0.635-0.655l-0.06-0.043
		c-0.248-0.172-0.386-0.269-0.55-0.269c-0.102,0-0.117,0.042-0.152,0.144c-0.015,0.047-0.036,0.106-0.071,0.17
		c-0.057,0.103-0.13,0.126-0.184,0.126c-0.089,0-0.178-0.066-0.178-0.116c0-0.028-0.022-0.194-0.125-0.295
		c-0.027-0.027-0.058-0.014-0.093,0.027c-0.054,0.063-0.102,0.189-0.088,0.291c0.012,0.083,0.057,0.101,0.157,0.134
		c0.07,0.023,0.156,0.052,0.246,0.123c0.124,0.097,0.175,0.179,0.152,0.243c-0.009,0.027-0.04,0.072-0.147,0.072
		c-0.073,0-0.131-0.027-0.183-0.051c-0.059-0.028-0.104-0.049-0.147-0.022c-0.036,0.023-0.036,0.05-0.03,0.107
		c0.004,0.056,0.01,0.129-0.043,0.204C46.209,14.868,46.11,14.925,46.019,14.925 M46.702,12.785
		c-0.01,0.005-0.022,0.047-0.031,0.081c-0.01,0.034-0.022,0.078-0.04,0.128c-0.108,0.292-0.257,0.416-0.496,0.416
		c-0.104,0-0.18,0.029-0.23,0.086c-0.058,0.065-0.077,0.167-0.058,0.301c0.026,0.167,0.039,0.174,0.078,0.189
		c0.026,0.012,0.063,0.027,0.112,0.07c0.102,0.091,0.156,0.209,0.133,0.297c-0.013,0.054-0.057,0.092-0.12,0.109
		c-0.122,0.029-0.124,0.179-0.108,0.336c0.005,0.05,0.05,0.057,0.076,0.057c0.057,0,0.139-0.036,0.194-0.115
		c0.039-0.054,0.033-0.107,0.03-0.157c-0.005-0.06-0.01-0.126,0.063-0.171c0.025-0.017,0.053-0.024,0.081-0.024
		c0.046,0,0.089,0.019,0.133,0.041c0.048,0.022,0.097,0.045,0.153,0.045c0.053,0,0.077-0.013,0.081-0.026
		c0.006-0.018-0.014-0.073-0.129-0.165c-0.081-0.064-0.16-0.089-0.227-0.112c-0.094-0.031-0.184-0.061-0.202-0.19
		c-0.019-0.125,0.039-0.272,0.104-0.345c0.063-0.074,0.14-0.084,0.194-0.031c0.118,0.116,0.145,0.304,0.145,0.343
		c0.004,0.008,0.051,0.046,0.107,0.046c0.049,0,0.09-0.029,0.121-0.088c0.033-0.06,0.051-0.114,0.067-0.161
		c0.039-0.106,0.067-0.191,0.219-0.191c0.185,0,0.33,0.101,0.59,0.283l0.06,0.043c0.256,0.177,0.434,0.335,0.639,0.65
		c0.031-0.051,0.08-0.184,0.115-0.277c0.063-0.167,0.103-0.273,0.14-0.314c0.004-0.01,0.207-0.406,0.539-0.502
		c0.31-0.092,0.524-0.135,0.829-0.123c0.191,0.009,0.308-0.023,0.36-0.043l-0.241-0.312c-0.009-0.011-0.188-0.262-0.044-0.531
		c0.068-0.126,0.073-0.199,0.066-0.235l-0.295,0.272c-0.006,0-0.328,0.081-0.672-0.165c-0.049-0.034-0.1-0.069-0.152-0.105
		c-0.31-0.212-0.663-0.451-0.828-0.882c-0.162-0.426-0.449-0.691-0.512-0.747c-0.044,0.015-0.174,0.083-0.144,0.398
		c0.015,0.141,0.044,0.248,0.069,0.333c0.048,0.169,0.08,0.28-0.063,0.449c-0.103,0.124-0.089,0.206-0.079,0.276
		c0.01,0.06,0.021,0.123-0.048,0.181c-0.044,0.038-0.097,0.059-0.147,0.078c-0.099,0.038-0.163,0.064-0.149,0.198
		c0.003,0.024,0.006,0.051,0.009,0.077c0.021,0.161,0.041,0.327-0.023,0.398c-0.049,0.056-0.131,0.047-0.255-0.04
		C46.827,12.851,46.732,12.785,46.702,12.785"/>
	<path class="st2" d="M45.706,15.878c0,0-0.148-0.306-0.04-0.36c0.108-0.054,0.255-0.054,0.282-0.198
		c0.026-0.148,0.147-0.333,0.241-0.28c0.095,0.054,0.135,0.065,0.162,0.226c0.026,0.158,0.08,0.185,0.254,0.172
		c0.175-0.014,0.242-0.172,0.121-0.24c-0.121-0.065-0.402-0.199-0.308-0.278c0.093-0.08,0.187-0.2,0.335-0.147
		c0.147,0.052,0.309,0.16,0.335,0.306c0.027,0.146-0.174,0.267-0.161,0.479c0.014,0.212,0.269,0.346,0.35,0.705
		c0.08,0.359,0.066,0.653-0.068,0.997c-0.133,0.346-0.442,0.4-0.416,0.613c0.027,0.212,0.066,0.312-0.014,0.324
		c-0.081,0.013-0.192-0.202-0.389,0.128c-0.099,0.169-0.174,0.36-0.158,0.705c0.012,0.346-0.054,0.692-0.243,0.904
		c-0.188,0.213-0.255,0.333-0.229,0.559c0.028,0.227,0.148,0.572,0.148,0.572s-0.228,0.04-0.335,0.172
		c-0.107,0.133-0.121,0.292-0.134,0.36c-0.013,0.066-0.242,0.266-0.429,0.28c-0.188,0.013-0.067-0.148-0.067-0.227
		c0-0.078,0.107-0.239,0.174-0.291c0.067-0.054,0.027-0.28-0.094-0.294c-0.121-0.015-0.174,0-0.188,0.186
		c-0.013,0.185-0.053,0.252-0.187,0.185c-0.135-0.066-0.282-0.052-0.336,0.107c-0.054,0.16,0.013,0.439-0.147,0.506
		c-0.162,0.066-0.229,0.036-0.176-0.232c0.054-0.264,0.122-0.3,0-0.314c-0.121-0.011-0.349,0.095-0.416,0.253
		c-0.066,0.161-0.053,0.335-0.227,0.335c-0.174,0-0.296-0.055-0.35-0.227c-0.053-0.174-0.241-0.213-0.254-0.107
		c-0.013,0.107-0.081,0.268-0.201,0.147c-0.121-0.12-0.336-0.346-0.417-0.452c-0.08-0.106-0.121,0.16-0.066,0.319
		c0.053,0.16,0.172,0.292,0.214,0.346c0.041,0.054-0.228-0.066-0.429,0.066c-0.201,0.133-0.296,0.066-0.497,0.386
		c-0.199,0.319-0.254,0.414-0.429,0.306c-0.174-0.107-0.161-0.134-0.322-0.346c-0.16-0.213-0.121-0.359,0-0.52
		c0.121-0.158,0.215-0.079,0.309-0.226c0.094-0.146,0.08-0.359-0.107-0.318c-0.188,0.038-0.27-0.069-0.323-0.095
		c-0.053-0.025-0.188-0.106-0.362-0.065c-0.175,0.04-0.242,0.013-0.47,0.065c-0.228,0.054-0.376,0.16-0.618,0.174
		c-0.241,0.013-0.375-0.026-0.483,0.028c-0.106,0.051-0.227,0.026-0.281-0.08c-0.053-0.107-0.255-0.107-0.281,0
		c-0.027,0.106,0.093,0.253-0.108,0.305c-0.202,0.054-0.295-0.121-0.336-0.186c-0.04-0.066-0.456-0.054-0.508-0.038
		c-0.055,0.012-0.364-0.071-0.364-0.271c0-0.201-0.106-0.368,0.122-0.315c0.229,0.055,0.756-0.162,1.023-0.323
		c0.27-0.16,0.732-0.516,0.853-0.541c0.121-0.028,0.296,0.105,0.577,0.198c0.283,0.093,0.927,0.027,1.168,0.014
		c0.242-0.014,0.47-0.093,0.536,0.079c0.068,0.172,0.203,0.213,0.349,0.16c0.148-0.054,0.336-0.186,0.376-0.412
		c0.041-0.226,0.363-0.438,0.508-0.559c0.149-0.117,0.149-0.335,0.229-0.531c0.021-0.048,0.043-0.204,0.218-0.268
		c0.203-0.077,0.47-0.04,0.494,0.042c0.032,0.116-0.268,0.066-0.309,0.161c-0.04,0.092-0.121,0.345,0.041,0.397
		c0.161,0.054,0.335-0.172,0.469-0.253c0.133-0.079,0.645-0.121,0.78-0.24c0.134-0.12,0.346-0.49,0.521-0.544
		c0.174-0.054,0.266-0.081,0.293-0.266c0.028-0.186,0.148-0.333,0.243-0.427c0.093-0.093,0.241-0.147,0.241-0.359
		c0-0.212-0.014-0.387,0.121-0.425c0.133-0.041,0.228-0.516,0.081-0.487c-0.134,0.027-0.234,0.024-0.107-0.054
		c0.071-0.045,0.071-0.105,0.125-0.195C45.673,16.061,45.706,15.878,45.706,15.878"/>
	<path class="st2" d="M41.036,22.953c-0.04,0-0.084-0.015-0.135-0.047c-0.136-0.084-0.165-0.123-0.238-0.227
		c-0.024-0.034-0.054-0.075-0.094-0.128c-0.185-0.248-0.109-0.416,0-0.562c0.067-0.088,0.129-0.11,0.181-0.129
		c0.048-0.018,0.085-0.032,0.126-0.096c0.05-0.077,0.066-0.176,0.036-0.23c-0.018-0.034-0.053-0.047-0.107-0.034
		c-0.03,0.006-0.058,0.009-0.086,0.009c-0.111,0-0.18-0.05-0.225-0.084c-0.013-0.009-0.024-0.018-0.035-0.022l-0.015-0.009
		c-0.045-0.023-0.129-0.064-0.234-0.064c-0.03,0-0.059,0.002-0.088,0.009c-0.085,0.019-0.144,0.024-0.207,0.028
		c-0.071,0.006-0.143,0.011-0.261,0.038c-0.088,0.02-0.165,0.05-0.238,0.078c-0.121,0.045-0.234,0.088-0.386,0.097
		c-0.093,0.005-0.167,0.001-0.234,0c-0.031-0.001-0.059-0.001-0.085-0.001c-0.071,0-0.112,0.006-0.149,0.024
		c-0.04,0.019-0.082,0.029-0.124,0.029c-0.089,0-0.166-0.046-0.205-0.124c-0.021-0.043-0.076-0.063-0.12-0.063
		c-0.039,0-0.086,0.015-0.096,0.055c-0.006,0.027-0.001,0.059,0.005,0.093c0.013,0.082,0.031,0.193-0.138,0.238
		c-0.028,0.008-0.055,0.01-0.082,0.01c-0.163,0-0.246-0.138-0.286-0.204l-0.005-0.009c-0.013-0.013-0.098-0.033-0.281-0.033
		c-0.098,0-0.175,0.006-0.191,0.011c-0.008,0.001-0.014,0.001-0.023,0.001c-0.048,0-0.143-0.024-0.223-0.07
		c-0.107-0.061-0.162-0.142-0.162-0.236c0-0.051-0.008-0.101-0.014-0.146c-0.012-0.078-0.021-0.14,0.014-0.181
		c0.03-0.034,0.081-0.041,0.165-0.022c0.021,0.005,0.046,0.008,0.075,0.008c0.257,0,0.703-0.194,0.923-0.327
		c0.107-0.063,0.246-0.157,0.38-0.25c0.219-0.149,0.405-0.277,0.485-0.296c0.08-0.019,0.18,0.026,0.312,0.084
		c0.081,0.038,0.174,0.079,0.283,0.116c0.095,0.031,0.247,0.047,0.451,0.047c0.203,0,0.417-0.015,0.572-0.027
		c0.051-0.004,0.095-0.008,0.131-0.009c0.054-0.003,0.107-0.009,0.157-0.015c0.064-0.008,0.125-0.014,0.179-0.014
		c0.08,0,0.189,0.013,0.236,0.132c0.054,0.142,0.161,0.191,0.304,0.139c0.147-0.052,0.317-0.183,0.354-0.386
		c0.036-0.203,0.269-0.386,0.44-0.517c0.03-0.023,0.058-0.045,0.08-0.064c0.091-0.072,0.121-0.185,0.156-0.317
		c0.018-0.065,0.035-0.133,0.063-0.2c0.003-0.005,0.005-0.014,0.008-0.023c0.021-0.066,0.063-0.203,0.229-0.264
		c0.075-0.029,0.166-0.045,0.256-0.045c0.116,0,0.261,0.028,0.284,0.11c0.009,0.032,0,0.054-0.008,0.068
		c-0.028,0.043-0.095,0.056-0.167,0.068c-0.052,0.01-0.124,0.023-0.135,0.047c-0.04,0.092-0.075,0.226-0.039,0.301
		c0.01,0.024,0.031,0.042,0.058,0.051c0.094,0.031,0.209-0.064,0.308-0.148c0.046-0.04,0.09-0.077,0.131-0.102
		c0.063-0.036,0.187-0.064,0.331-0.093c0.175-0.038,0.373-0.08,0.444-0.144c0.046-0.041,0.106-0.116,0.167-0.195
		c0.116-0.149,0.246-0.317,0.368-0.355c0.175-0.054,0.246-0.075,0.269-0.237c0.023-0.153,0.108-0.303,0.252-0.444
		c0.023-0.023,0.049-0.043,0.075-0.064c0.08-0.065,0.156-0.125,0.156-0.271v-0.056c0-0.193-0.001-0.36,0.147-0.404
		c0.068-0.02,0.147-0.248,0.127-0.374c-0.001-0.01-0.008-0.046-0.023-0.046c-0.043,0.009-0.097,0.018-0.134,0.018
		c-0.017,0-0.067,0-0.077-0.038c-0.012-0.04,0.031-0.07,0.072-0.096c0.039-0.023,0.051-0.051,0.071-0.098
		c0.013-0.024,0.026-0.052,0.044-0.085c0.041-0.074,0.072-0.213,0.08-0.253c-0.035-0.074-0.143-0.333-0.018-0.395
		c0.03-0.015,0.063-0.027,0.095-0.037c0.094-0.032,0.152-0.055,0.167-0.138c0.023-0.133,0.127-0.318,0.242-0.318
		c0.018,0,0.035,0.006,0.05,0.015l0.019,0.009c0.093,0.052,0.134,0.082,0.161,0.24c0.025,0.152,0.071,0.157,0.218,0.144
		c0.088-0.006,0.138-0.055,0.148-0.097c0.006-0.032-0.009-0.059-0.044-0.078l-0.045-0.023c-0.158-0.086-0.29-0.161-0.299-0.241
		c-0.001-0.019,0.001-0.046,0.031-0.07c0.014-0.013,0.027-0.025,0.041-0.038c0.067-0.06,0.143-0.13,0.245-0.13
		c0.028,0,0.055,0.005,0.084,0.015c0.075,0.027,0.322,0.132,0.358,0.332c0.015,0.082-0.027,0.153-0.073,0.227
		c-0.046,0.077-0.093,0.156-0.086,0.255c0.005,0.091,0.06,0.166,0.129,0.261c0.078,0.107,0.175,0.241,0.218,0.439
		c0.086,0.378,0.067,0.673-0.068,1.019c-0.068,0.177-0.181,0.281-0.272,0.364c-0.089,0.082-0.153,0.14-0.142,0.231
		c0.006,0.045,0.012,0.086,0.018,0.12c0.021,0.137,0.035,0.226-0.06,0.243l-0.014,0.001c-0.028,0-0.054-0.014-0.081-0.028
		s-0.055-0.029-0.085-0.029c-0.057,0-0.118,0.056-0.184,0.169c-0.103,0.174-0.169,0.355-0.154,0.684
		c0.013,0.401-0.077,0.732-0.252,0.93c-0.183,0.209-0.245,0.321-0.22,0.531c0.027,0.221,0.145,0.562,0.147,0.566l0.014,0.038
		L45.913,21.1c-0.003,0.001-0.216,0.04-0.314,0.161c-0.088,0.107-0.108,0.235-0.12,0.313l-0.006,0.031
		c-0.017,0.086-0.264,0.294-0.46,0.308c-0.062,0.005-0.104-0.008-0.127-0.038c-0.032-0.043-0.013-0.103,0.005-0.156
		c0.008-0.024,0.017-0.051,0.017-0.068c0-0.092,0.115-0.26,0.187-0.318c0.019-0.015,0.027-0.073,0.009-0.134
		c-0.006-0.02-0.031-0.092-0.086-0.097c-0.019-0.003-0.037-0.005-0.053-0.005c-0.044,0-0.082,0-0.095,0.158
		c-0.005,0.086-0.017,0.244-0.138,0.244c-0.028,0-0.062-0.01-0.1-0.029c-0.044-0.023-0.089-0.035-0.129-0.035
		c-0.076,0-0.131,0.042-0.158,0.121c-0.017,0.051-0.021,0.116-0.024,0.186c-0.008,0.135-0.017,0.289-0.142,0.34
		c-0.112,0.047-0.171,0.043-0.211-0.003c-0.037-0.045-0.041-0.124-0.013-0.267c0.018-0.084,0.037-0.147,0.05-0.19
		c0.01-0.035,0.021-0.069,0.018-0.078c0,0.003-0.004-0.001-0.036-0.005c-0.005-0.001-0.01-0.001-0.017-0.001
		c-0.106,0-0.304,0.093-0.363,0.232c-0.017,0.041-0.03,0.082-0.04,0.123c-0.031,0.114-0.066,0.232-0.22,0.232
		c-0.131,0-0.312-0.026-0.382-0.252c-0.031-0.097-0.107-0.14-0.152-0.14c-0.032,0-0.033,0.02-0.035,0.028
		c-0.01,0.082-0.054,0.22-0.154,0.22c-0.036,0-0.071-0.018-0.106-0.052c-0.118-0.118-0.336-0.346-0.42-0.456
		c-0.003-0.004-0.005-0.005-0.006-0.008c-0.021,0.036-0.039,0.181,0.001,0.295c0.044,0.133,0.139,0.249,0.189,0.312l0.019,0.024
		c0.017,0.02,0.012,0.038,0.008,0.047c-0.013,0.022-0.033,0.027-0.097,0.018c-0.035-0.004-0.076-0.009-0.122-0.009
		c-0.093,0-0.166,0.02-0.227,0.06c-0.066,0.042-0.12,0.066-0.169,0.087c-0.103,0.043-0.184,0.078-0.317,0.289l-0.014,0.022
		C41.216,22.846,41.148,22.953,41.036,22.953 M40.842,21.426c0.059,0,0.107,0.027,0.131,0.074c0.044,0.078,0.027,0.202-0.037,0.303
		c-0.054,0.083-0.108,0.103-0.162,0.123c-0.048,0.018-0.094,0.034-0.149,0.106c-0.113,0.151-0.149,0.277,0,0.478
		c0.041,0.054,0.071,0.096,0.095,0.13c0.072,0.101,0.094,0.132,0.218,0.207c0.041,0.025,0.072,0.038,0.099,0.038
		c0.073,0,0.139-0.105,0.269-0.312l0.014-0.022c0.143-0.229,0.238-0.268,0.349-0.315c0.048-0.02,0.098-0.041,0.157-0.082
		c0.072-0.047,0.16-0.07,0.265-0.07c0.045,0,0.085,0.004,0.117,0.008c-0.055-0.069-0.138-0.179-0.181-0.308
		c-0.04-0.117-0.035-0.296,0.012-0.36c0.018-0.026,0.039-0.031,0.053-0.031c0.022,0,0.044,0.013,0.063,0.038
		c0.077,0.102,0.288,0.324,0.413,0.449c0.021,0.02,0.04,0.032,0.057,0.032c0.039,0,0.076-0.082,0.085-0.16
		c0.006-0.054,0.048-0.089,0.104-0.089c0.08,0,0.179,0.066,0.219,0.192c0.044,0.14,0.139,0.202,0.315,0.202
		c0.097,0,0.118-0.06,0.153-0.183c0.01-0.042,0.023-0.085,0.043-0.13c0.076-0.181,0.323-0.289,0.451-0.275
		c0.035,0.005,0.071,0.011,0.089,0.038c0.021,0.031,0.01,0.068-0.01,0.134c-0.013,0.043-0.031,0.103-0.048,0.184
		c-0.028,0.142-0.017,0.193-0.003,0.209c0.009,0.011,0.051,0.015,0.13-0.017c0.085-0.035,0.091-0.153,0.098-0.28
		c0.005-0.072,0.009-0.144,0.028-0.204c0.039-0.109,0.117-0.169,0.225-0.169c0.05,0,0.107,0.014,0.161,0.041
		c0.028,0.014,0.051,0.022,0.068,0.022c0.028,0,0.057-0.022,0.068-0.177c0.01-0.138,0.041-0.223,0.165-0.223
		c0.019,0,0.039,0.001,0.061,0.005c0.067,0.006,0.121,0.061,0.147,0.147c0.019,0.07,0.018,0.166-0.033,0.207
		c-0.063,0.051-0.16,0.202-0.16,0.264c0,0.028-0.01,0.057-0.021,0.089c-0.01,0.031-0.026,0.078-0.015,0.092
		c0.006,0.01,0.032,0.014,0.066,0.011c0.172-0.013,0.386-0.204,0.395-0.252l0.006-0.029c0.012-0.078,0.035-0.224,0.135-0.345
		c0.088-0.109,0.245-0.158,0.317-0.177c-0.031-0.095-0.115-0.355-0.138-0.543c-0.028-0.24,0.046-0.369,0.237-0.586
		c0.165-0.185,0.247-0.497,0.234-0.88c-0.015-0.365,0.071-0.564,0.166-0.723c0.081-0.137,0.158-0.202,0.243-0.202
		c0.046,0,0.086,0.02,0.117,0.037c0.019,0.01,0.039,0.019,0.049,0.019c0.027-0.004,0.025-0.036,0.005-0.162
		c-0.006-0.037-0.013-0.078-0.018-0.124c-0.015-0.125,0.067-0.202,0.163-0.29c0.09-0.082,0.192-0.176,0.254-0.337
		c0.13-0.333,0.149-0.617,0.067-0.979c-0.041-0.184-0.129-0.306-0.207-0.414c-0.073-0.1-0.135-0.186-0.142-0.296
		c-0.009-0.123,0.048-0.215,0.096-0.296c0.04-0.065,0.075-0.123,0.063-0.179c-0.023-0.132-0.175-0.23-0.312-0.28
		c-0.102-0.038-0.181,0.031-0.257,0.101c-0.014,0.014-0.028,0.028-0.044,0.04c-0.006,0.005-0.006,0.009-0.006,0.01
		c0.006,0.051,0.187,0.146,0.264,0.186l0.045,0.024c0.062,0.034,0.09,0.092,0.076,0.154c-0.014,0.068-0.085,0.142-0.21,0.152
		c-0.197,0.015-0.264-0.027-0.292-0.203c-0.022-0.132-0.048-0.147-0.126-0.19l-0.018-0.01c-0.062-0.033-0.165,0.119-0.189,0.255
		c-0.024,0.128-0.126,0.161-0.215,0.19c-0.032,0.01-0.06,0.02-0.086,0.033c-0.05,0.024,0,0.198,0.055,0.314l0.005,0.01l-0.003,0.011
		c0,0.006-0.035,0.189-0.089,0.285c-0.019,0.031-0.03,0.056-0.041,0.079c-0.022,0.051-0.041,0.094-0.097,0.13
		c-0.003,0-0.005,0.001-0.005,0.003c0.023-0.003,0.053-0.006,0.085-0.013c0.008-0.001,0.013-0.003,0.021-0.003
		c0.023,0,0.078,0.01,0.091,0.105c0.022,0.14-0.058,0.415-0.175,0.451c-0.094,0.027-0.098,0.139-0.098,0.337l0.001,0.056
		c0,0.179-0.097,0.255-0.183,0.324c-0.023,0.019-0.048,0.038-0.07,0.059c-0.133,0.131-0.21,0.268-0.232,0.406
		c-0.03,0.206-0.143,0.24-0.314,0.294c-0.104,0.032-0.234,0.198-0.337,0.331c-0.064,0.082-0.125,0.16-0.176,0.206
		c-0.082,0.075-0.283,0.118-0.476,0.158c-0.131,0.029-0.256,0.056-0.308,0.087c-0.037,0.022-0.078,0.057-0.122,0.094
		c-0.095,0.081-0.203,0.171-0.314,0.171c-0.022,0-0.043-0.003-0.063-0.01c-0.046-0.014-0.08-0.045-0.099-0.088
		c-0.057-0.123,0.022-0.318,0.039-0.356c0.026-0.06,0.108-0.074,0.188-0.089c0.046-0.006,0.108-0.018,0.12-0.036
		c0-0.001,0.003-0.004,0-0.012c-0.006-0.024-0.089-0.06-0.218-0.06c-0.081,0-0.164,0.015-0.232,0.041
		c-0.134,0.049-0.166,0.155-0.187,0.218c-0.003,0.011-0.006,0.022-0.01,0.031c-0.026,0.063-0.043,0.129-0.059,0.192
		c-0.037,0.138-0.071,0.267-0.18,0.354c-0.022,0.018-0.05,0.04-0.08,0.064c-0.153,0.119-0.384,0.296-0.416,0.474
		c-0.043,0.232-0.233,0.38-0.398,0.439c-0.176,0.064-0.327-0.005-0.394-0.18c-0.023-0.061-0.073-0.087-0.17-0.087
		c-0.05,0-0.108,0.006-0.17,0.014c-0.053,0.006-0.107,0.013-0.161,0.015c-0.036,0.002-0.08,0.005-0.13,0.009
		c-0.158,0.012-0.373,0.027-0.578,0.027c-0.215,0-0.369-0.017-0.472-0.051c-0.113-0.037-0.209-0.08-0.291-0.117
		c-0.117-0.054-0.209-0.092-0.268-0.079c-0.066,0.014-0.274,0.157-0.458,0.285c-0.136,0.093-0.275,0.189-0.385,0.253
		c-0.227,0.135-0.689,0.337-0.959,0.337c-0.033,0-0.064-0.004-0.091-0.01c-0.025-0.005-0.045-0.009-0.062-0.009
		c-0.013,0-0.027,0.001-0.033,0.009c-0.014,0.015-0.005,0.071,0.003,0.126c0.006,0.046,0.015,0.098,0.015,0.154
		c0,0.084,0.069,0.143,0.127,0.176c0.072,0.041,0.154,0.061,0.187,0.061c0.036-0.009,0.133-0.014,0.214-0.014
		c0.299,0,0.328,0.05,0.34,0.069l0.006,0.009c0.035,0.06,0.102,0.17,0.225,0.17c0.021,0,0.043-0.003,0.064-0.009
		c0.107-0.028,0.099-0.078,0.086-0.158c-0.006-0.04-0.013-0.082-0.004-0.121c0.017-0.065,0.081-0.107,0.165-0.107
		c0.081,0,0.152,0.04,0.183,0.101c0.04,0.082,0.143,0.107,0.234,0.063c0.058-0.028,0.121-0.032,0.18-0.032
		c0.027,0,0.055,0,0.088,0.003c0.064,0.001,0.14,0.004,0.228-0.001c0.14-0.008,0.25-0.049,0.366-0.092
		c0.076-0.029,0.154-0.059,0.247-0.082c0.122-0.027,0.202-0.033,0.272-0.038c0.061-0.004,0.118-0.009,0.196-0.027
		c0.035-0.008,0.071-0.011,0.104-0.011c0.122,0,0.215,0.047,0.266,0.073l0.015,0.006c0.013,0.008,0.027,0.018,0.044,0.029
		c0.044,0.032,0.097,0.072,0.184,0.072c0.023,0,0.048-0.003,0.071-0.008C40.808,21.429,40.826,21.426,40.842,21.426"/>
	<path class="st2" d="M44.195,18.17c0,0,0.144-0.108,0.049-0.156c-0.098-0.047-0.219,0.047-0.219,0.097
		c0,0.046,0.026,0.07-0.012,0.131c-0.036,0.059-0.084,0.202,0.025,0.156c0.108-0.05,0.301-0.12,0.218-0.146
		C44.171,18.229,44.195,18.17,44.195,18.17"/>
	<path class="st2" d="M44.002,18.439L44.002,18.439c-0.023,0-0.043-0.012-0.053-0.031c-0.035-0.06,0.037-0.18,0.037-0.183
		c0.021-0.031,0.017-0.046,0.013-0.071c-0.004-0.013-0.005-0.028-0.005-0.043c0-0.059,0.097-0.14,0.192-0.14
		c0.026,0,0.049,0.005,0.071,0.017c0.039,0.019,0.049,0.046,0.05,0.065c0.005,0.058-0.057,0.115-0.085,0.137
		c0,0.003,0,0.006,0.004,0.012c0.004,0.009,0.018,0.018,0.037,0.023c0.035,0.01,0.042,0.031,0.044,0.045
		c0.003,0.043-0.052,0.072-0.196,0.133c-0.022,0.009-0.041,0.018-0.06,0.026C44.032,18.434,44.017,18.439,44.002,18.439
		 M44.186,18.033c-0.068,0-0.129,0.059-0.129,0.078c0,0.011,0.001,0.022,0.004,0.032c0.005,0.031,0.012,0.063-0.019,0.115
		c-0.026,0.043-0.042,0.101-0.039,0.119c0.004-0.001,0.01-0.003,0.022-0.008c0.018-0.008,0.039-0.017,0.06-0.025
		c0.044-0.019,0.108-0.046,0.14-0.066c-0.03-0.013-0.048-0.029-0.058-0.051c-0.015-0.033-0.005-0.064-0.003-0.068l0.01-0.013
		c0.03-0.023,0.071-0.065,0.068-0.087c0-0.005-0.005-0.011-0.015-0.015C44.216,18.037,44.201,18.033,44.186,18.033"/>
	<path class="st1" d="M41.603,20.721c0,0-0.135,0.041-0.148,0.172c-0.014,0.133-0.053,0.254-0.053,0.254s0.147,0.025,0.268-0.066
		c0.121-0.095,0.201-0.041,0.175-0.175C41.818,20.773,41.603,20.721,41.603,20.721"/>
	<path class="st2" d="M41.449,21.184c-0.033,0-0.055-0.004-0.055-0.004l-0.039-0.006l0.013-0.038c0-0.001,0.039-0.12,0.053-0.246
		c0.014-0.153,0.165-0.201,0.171-0.202l0.009-0.003l0.009,0.001c0.01,0.003,0.238,0.06,0.269,0.213
		c0.019,0.106-0.019,0.129-0.085,0.153c-0.027,0.01-0.063,0.023-0.102,0.055C41.608,21.172,41.514,21.184,41.449,21.184
		 M41.447,21.115h0.003c0.054,0,0.131-0.011,0.2-0.063c0.048-0.037,0.09-0.054,0.122-0.065c0.048-0.018,0.05-0.019,0.039-0.075
		c-0.017-0.085-0.146-0.138-0.206-0.154c-0.026,0.01-0.104,0.049-0.113,0.139C41.48,20.985,41.461,21.067,41.447,21.115"/>
	<path class="st2" d="M40.422,21.593c0,0-0.064,0.005-0.09,0.112c-0.027,0.106-0.151,0.141-0.058,0.181
		c0.094,0.04,0.21,0.094,0.203-0.019c-0.008-0.11-0.008-0.087-0.008-0.154C40.469,21.647,40.422,21.593,40.422,21.593"/>
	<path class="st2" d="M40.426,21.97c-0.046,0-0.103-0.024-0.157-0.048l-0.009-0.004c-0.019-0.009-0.046-0.023-0.054-0.052
		c-0.006-0.032,0.015-0.056,0.037-0.083c0.021-0.023,0.045-0.05,0.054-0.086c0.032-0.13,0.118-0.138,0.122-0.138l0.017-0.001
		l0.012,0.013c0.001,0.001,0.057,0.064,0.057,0.143c0,0.049,0,0.049,0.004,0.092l0.004,0.059c0.001,0.036-0.005,0.064-0.023,0.082
		C40.473,21.962,40.453,21.97,40.426,21.97"/>
	<path class="st2" d="M39.993,22.384c0,0-0.255,0.052-0.268,0.16c-0.014,0.106,0.107,0.384-0.08,0.292
		c-0.189-0.094-0.229-0.346-0.417-0.346s-0.335,0.12-0.402,0.198c-0.068,0.082-0.201,0.227-0.295,0.308
		c-0.094,0.079-0.175,0.292-0.362,0.146c-0.17-0.131-0.135-0.186-0.161-0.518c-0.026-0.297-0.209-0.152-0.175-0.332
		c0.026-0.147,0.179-0.103,0.429-0.186c0.282-0.093,0.108-0.009,0.215-0.186c0.08-0.134,0.042-0.162,0.215-0.04
		c0.187,0.133,0.348,0.172,0.535,0.026c0.188-0.146,0.188-0.266,0.322-0.239c0.135,0.026,0.309,0.066,0.47,0.305
		C40.181,22.209,40.114,22.291,39.993,22.384"/>
	<path class="st2" d="M38.29,23.227c-0.045,0-0.091-0.019-0.14-0.059c-0.152-0.116-0.156-0.183-0.166-0.383
		c-0.003-0.046-0.005-0.097-0.009-0.158c-0.012-0.144-0.059-0.169-0.103-0.189c-0.05-0.026-0.09-0.055-0.072-0.155
		c0.022-0.119,0.118-0.138,0.239-0.161c0.062-0.012,0.133-0.024,0.214-0.051c0.051-0.018,0.088-0.028,0.112-0.037
		c0.017-0.004,0.03-0.008,0.039-0.011c0-0.023,0.006-0.057,0.044-0.123c0.014-0.023,0.024-0.043,0.033-0.06
		c0.021-0.041,0.039-0.074,0.08-0.074c0.033,0,0.069,0.024,0.153,0.084c0.206,0.146,0.339,0.148,0.494,0.027
		c0.071-0.055,0.113-0.106,0.147-0.148c0.057-0.066,0.102-0.119,0.203-0.097c0.16,0.031,0.331,0.081,0.49,0.321
		c0.178,0.262,0.09,0.363-0.033,0.46l-0.015,0.006c-0.094,0.019-0.233,0.073-0.239,0.129c-0.003,0.027,0.004,0.073,0.012,0.117
		c0.014,0.082,0.027,0.16-0.008,0.199c-0.017,0.019-0.062,0.038-0.134,0.003c-0.091-0.045-0.149-0.124-0.202-0.193
		c-0.063-0.083-0.112-0.149-0.198-0.149c-0.207,0-0.35,0.154-0.376,0.186c-0.068,0.08-0.203,0.23-0.3,0.31
		c-0.019,0.017-0.039,0.041-0.06,0.068C38.442,23.153,38.381,23.227,38.29,23.227 M38.56,21.835c0,0.003-0.009,0.02-0.018,0.037
		c-0.009,0.018-0.019,0.038-0.035,0.064c-0.035,0.06-0.035,0.083-0.035,0.096c0,0.043-0.022,0.05-0.086,0.07
		c-0.026,0.008-0.06,0.018-0.111,0.034c-0.088,0.029-0.162,0.043-0.224,0.055c-0.126,0.023-0.17,0.036-0.183,0.105
		c-0.012,0.056-0.001,0.061,0.033,0.079c0.052,0.024,0.126,0.063,0.142,0.245c0.005,0.063,0.006,0.116,0.01,0.161
		c0.009,0.194,0.012,0.235,0.139,0.332c0.035,0.029,0.068,0.045,0.097,0.045c0.058,0,0.104-0.057,0.149-0.114
		c0.023-0.028,0.045-0.055,0.07-0.075c0.094-0.078,0.225-0.223,0.291-0.301c0.086-0.105,0.246-0.213,0.43-0.213
		c0.122,0,0.189,0.091,0.255,0.179c0.05,0.065,0.102,0.134,0.178,0.172c0.025,0.013,0.037,0.014,0.044,0.014
		c0.019-0.014,0.004-0.101-0.003-0.143c-0.01-0.052-0.017-0.101-0.013-0.138c0.015-0.119,0.227-0.174,0.287-0.186
		c0.104-0.082,0.158-0.147,0.013-0.361c-0.157-0.236-0.324-0.267-0.447-0.291c-0.062-0.015-0.079,0.008-0.135,0.074
		c-0.036,0.045-0.082,0.098-0.157,0.157c-0.183,0.142-0.346,0.139-0.579-0.024C38.622,21.871,38.574,21.836,38.56,21.835"/>
	<path class="st2" d="M37.083,23.194c0,0-0.215,0.188-0.241,0.427c-0.027,0.24-0.094,0.466-0.215,0.572
		c-0.121,0.106-0.322,0.054-0.336,0.174c-0.013,0.119-0.174,0.292-0.227,0.305c-0.055,0.014,0.066-0.452,0.04-0.559
		c-0.028-0.106-0.107-0.305-0.161-0.144c-0.054,0.16-0.081,0.331-0.108,0.424c-0.026,0.093-0.122,0.28-0.228-0.012
		c-0.118-0.331-0.135-0.271-0.041-0.484c0.094-0.212-0.051-0.317,0.015-0.423c0.066-0.105,0.145-0.092,0.32-0.239
		c0.174-0.147,0.296-0.292,0.282-0.559c-0.013-0.266-0.12-0.518-0.215-0.386c-0.093,0.133-0.013,0.306-0.067,0.466
		c-0.054,0.16-0.134-0.066-0.228-0.08c-0.093-0.012-0.23-0.119-0.122-0.254c0.106-0.131,0.118-0.153,0.03-0.237
		c-0.153-0.146-0.077-0.253,0.046-0.313c0.183-0.092,0.093-0.089,0.201-0.063c0.107,0.027,0.072,0.054,0.155,0.123
		c0.116,0.098,0.184-0.137,0.175-0.106c-0.054,0.172-0.041-0.16,0.04-0.24c0.08-0.081,0.362-0.093,0.429-0.013
		c0.067,0.079,0.229,0.229,0.255,0.359c0.03,0.154,0.139,0.107,0.268,0.106c0.188-0.001,0.349,0.014,0.188,0.133
		c-0.161,0.12-0.241,0.147-0.188,0.24c0.054,0.093,0.322-0.04,0.363,0.16c0.04,0.2-0.014,0.425-0.081,0.441
		C37.365,23.022,37.083,23.194,37.083,23.194"/>
	<path class="st2" d="M36.062,24.707h-0.015l-0.015-0.015c-0.026-0.028-0.018-0.092,0.012-0.28c0.017-0.111,0.039-0.248,0.028-0.292
		c-0.027-0.098-0.063-0.163-0.08-0.177c-0.001,0.004-0.006,0.014-0.014,0.036c-0.035,0.103-0.059,0.213-0.078,0.301
		c-0.01,0.047-0.019,0.089-0.028,0.121c-0.008,0.029-0.054,0.171-0.144,0.171c-0.059,0-0.107-0.057-0.152-0.181
		c-0.022-0.06-0.039-0.107-0.054-0.146c-0.067-0.171-0.067-0.181,0.006-0.344l0.008-0.019c0.048-0.107,0.027-0.183,0.01-0.25
		c-0.015-0.057-0.031-0.116,0.008-0.176c0.04-0.065,0.086-0.091,0.145-0.123c0.046-0.027,0.104-0.06,0.183-0.125
		c0.18-0.152,0.282-0.29,0.268-0.531c-0.009-0.229-0.086-0.388-0.124-0.388c-0.005,0-0.014,0.005-0.026,0.022
		c-0.048,0.065-0.044,0.147-0.041,0.232c0.003,0.073,0.004,0.148-0.022,0.223c-0.006,0.02-0.026,0.082-0.08,0.082
		c-0.039,0-0.071-0.035-0.104-0.072c-0.026-0.028-0.057-0.064-0.082-0.066c-0.066-0.009-0.149-0.056-0.18-0.131
		c-0.017-0.041-0.025-0.105,0.036-0.179c0.1-0.126,0.1-0.126,0.032-0.192c-0.072-0.069-0.104-0.137-0.094-0.203
		c0.009-0.066,0.062-0.123,0.149-0.166c0.066-0.032,0.094-0.052,0.111-0.064c0.022-0.015,0.042-0.02,0.076-0.011
		c0.009,0.002,0.021,0.006,0.039,0.011c0.076,0.019,0.094,0.04,0.117,0.073c0.012,0.015,0.023,0.033,0.05,0.056
		c0.033,0.028,0.059,0.019,0.089-0.029c-0.013-0.055,0.013-0.249,0.08-0.314c0.057-0.057,0.178-0.078,0.265-0.078
		c0.048,0,0.165,0.006,0.215,0.066c0.013,0.015,0.03,0.034,0.049,0.054c0.08,0.088,0.191,0.207,0.214,0.321
		c0.014,0.073,0.042,0.085,0.098,0.085c0.019,0,0.039,0,0.059-0.004c0.025-0.001,0.05-0.003,0.076-0.003h0.023
		c0.174,0,0.246,0.018,0.263,0.069c0.017,0.05-0.035,0.097-0.077,0.126c-0.03,0.022-0.055,0.041-0.078,0.056
		c-0.116,0.082-0.124,0.094-0.098,0.138c0.01,0.022,0.062,0.022,0.111,0.022c0.095,0.001,0.225,0.003,0.254,0.148
		c0.039,0.194-0.004,0.458-0.107,0.481c-0.045,0.008-0.232,0.115-0.339,0.18h0.001c0,0-0.201,0.179-0.225,0.401
		c-0.022,0.199-0.08,0.465-0.227,0.595c-0.062,0.054-0.14,0.07-0.205,0.084c-0.081,0.018-0.115,0.029-0.12,0.065
		c-0.014,0.134-0.187,0.319-0.252,0.336L36.062,24.707z M35.991,23.872c0.075,0,0.124,0.146,0.148,0.231
		c0.013,0.054-0.004,0.162-0.028,0.319c-0.009,0.066-0.023,0.149-0.026,0.197c0.057-0.047,0.162-0.17,0.172-0.258
		c0.009-0.089,0.093-0.109,0.172-0.125c0.063-0.013,0.126-0.027,0.174-0.069c0.102-0.089,0.174-0.285,0.203-0.55
		c0.027-0.249,0.243-0.441,0.252-0.448c0.053-0.034,0.296-0.181,0.366-0.194c0.033-0.009,0.093-0.201,0.053-0.398
		c-0.017-0.084-0.081-0.091-0.185-0.092c-0.07,0-0.142-0.001-0.174-0.057c-0.058-0.103,0.013-0.155,0.121-0.23
		c0.022-0.015,0.048-0.033,0.076-0.054c0.05-0.037,0.053-0.052,0.053-0.052c-0.003,0-0.031-0.019-0.196-0.019h-0.023
		c-0.023,0-0.048,0.003-0.07,0.004c-0.023,0.003-0.045,0.004-0.066,0.004c-0.064,0-0.143-0.017-0.167-0.142
		c-0.018-0.096-0.126-0.211-0.197-0.287c-0.018-0.02-0.036-0.04-0.05-0.056c-0.021-0.025-0.084-0.042-0.161-0.042
		c-0.093,0-0.183,0.025-0.215,0.057c-0.032,0.031-0.051,0.116-0.06,0.179h0.013l0.021,0.027l-0.005,0.018
		c-0.01,0.036-0.018,0.052-0.027,0.061l-0.001,0.002c-0.044,0.077-0.091,0.093-0.124,0.093c-0.027,0-0.054-0.01-0.08-0.032
		c-0.035-0.029-0.05-0.052-0.063-0.069c-0.015-0.023-0.022-0.033-0.076-0.047c-0.021-0.004-0.033-0.009-0.043-0.012
		c-0.005-0.001-0.008-0.002-0.01-0.002c0.001,0.001-0.001,0.002-0.005,0.005c-0.018,0.012-0.049,0.035-0.12,0.069
		c-0.037,0.018-0.103,0.057-0.112,0.114c-0.005,0.043,0.019,0.091,0.075,0.143c0.109,0.105,0.082,0.148-0.026,0.285
		c-0.032,0.038-0.041,0.075-0.026,0.11c0.019,0.047,0.079,0.082,0.125,0.088c0.05,0.006,0.089,0.05,0.124,0.088
		c0.015,0.017,0.041,0.045,0.053,0.048c0-0.001,0.006-0.009,0.014-0.033c0.021-0.063,0.018-0.131,0.018-0.199
		c-0.004-0.093-0.006-0.19,0.054-0.276c0.023-0.035,0.051-0.05,0.082-0.05c0.12,0,0.185,0.266,0.194,0.455
		c0.014,0.268-0.1,0.423-0.293,0.587c-0.082,0.069-0.144,0.103-0.194,0.131c-0.055,0.031-0.089,0.05-0.12,0.098
		c-0.022,0.033-0.014,0.065,0.001,0.124c0.019,0.073,0.044,0.166-0.014,0.295l-0.009,0.02c-0.063,0.139-0.063,0.139-0.004,0.289
		c0.014,0.038,0.033,0.087,0.055,0.148c0.048,0.132,0.082,0.135,0.085,0.135c0.019,0,0.057-0.05,0.076-0.12
		c0.009-0.031,0.018-0.071,0.028-0.117c0.019-0.089,0.045-0.203,0.08-0.31C35.917,23.936,35.938,23.872,35.991,23.872"/>
</g>
</svg>
